<?xml version="1.0" standalone="no"?>
<svg xmlns="http://www.w3.org/2000/svg"
     width="1950"
     height="267"
     viewBox="0 0 1950 267">
    <g transform="translate(0.000000,267.000000) scale(0.100000,-0.100000)"
       fill="#1A2F63" stroke="none">
        <path d="M2893 2659 c-497 -58 -948 -431 -1106 -914 -106 -324 -81 -689 68
-985 164 -325 457 -578 791 -683 153 -48 239 -61 404 -62 268 0 463 59 675
206 93 64 210 167 209 184 -1 7 -65 103 -144 213 l-143 201 -66 -59 c-96 -85
-225 -163 -328 -196 -78 -26 -102 -29 -213 -29 -174 0 -276 31 -426 131 -243
161 -385 429 -371 699 7 118 25 193 73 294 98 209 275 368 492 444 120 42 279
49 403 18 136 -34 259 -101 400 -221 l37 -30 148 202 148 202 -60 53 c-280
252 -640 373 -991 332z"/>
        <path d="M11550 1360 l0 -1300 260 0 260 0 2 709 3 709 755 -734 c415 -404
759 -733 765 -731 7 3 11 439 13 1305 l2 1302 -260 0 -260 0 -2 -710 -3 -710
-750 730 c-412 401 -758 730 -767 730 -17 0 -18 -68 -18 -1300z"/>
        <path d="M0 1340 l0 -1280 260 0 260 0 0 510 0 510 438 2 437 3 3 253 2 252
-440 0 -440 0 0 260 0 260 510 0 510 0 0 255 0 255 -770 0 -770 0 0 -1280z"/>
        <path d="M5180 1341 l0 -1281 255 0 255 0 0 415 0 415 229 0 c251 0 348 11
473 56 274 97 486 325 559 600 30 111 30 297 0 409 -86 322 -338 560 -679 641
-55 14 -155 17 -579 21 l-513 5 0 -1281z m984 754 c120 -25 217 -99 268 -204
19 -37 23 -63 23 -136 0 -78 -4 -97 -28 -147 -36 -72 -119 -149 -195 -180 -53
-21 -74 -23 -299 -26 l-243 -3 0 349 c0 192 3 352 7 355 13 14 396 7 467 -8z"/>
        <path d="M7247 2613 c-12 -11 -8 -1640 3 -1733 16 -124 45 -222 100 -335 118
-242 329 -420 596 -501 83 -26 101 -28 274 -28 163 -1 195 2 269 22 359 98
627 383 702 747 17 84 19 150 19 963 l0 872 -255 0 -255 0 0 -822 c0 -906 0
-904 -61 -1019 -59 -111 -180 -208 -299 -239 -25 -7 -79 -12 -120 -11 -209 1
-390 147 -445 358 -13 48 -15 185 -15 895 l0 838 -253 0 c-140 0 -257 -3 -260
-7z"/>
        <path d="M9640 1340 l0 -1280 770 0 770 0 0 255 0 255 -515 0 -515 0 0 265 0
265 440 0 440 0 0 255 0 255 -440 0 -440 0 0 250 0 250 515 0 515 0 -2 253 -3
252 -767 3 -768 2 0 -1280z"/>
        <path d="M13900 2365 l0 -255 310 0 310 0 0 -1025 0 -1025 260 0 260 0 0 1025
0 1025 315 0 315 0 0 255 0 255 -885 0 -885 0 0 -255z"/>
        <path d="M15960 1340 l0 -1280 770 0 770 0 0 255 0 255 -515 0 -515 0 0 265 0
265 440 0 440 0 0 255 0 255 -440 0 -440 0 0 250 0 250 515 0 515 0 -2 253 -3
252 -767 3 -768 2 0 -1280z"/>
        <path d="M17720 2365 l0 -255 313 -2 312 -3 3 -1022 2 -1023 255 0 255 0 2
1023 3 1022 313 3 312 2 0 255 0 255 -885 0 -885 0 0 -255z"/>
    </g>
</svg>
